PathFileType	3	(X/Y/Z)	D:\VICON_DB\Goncalves\Pilot01\09-03-2026\walking_01.trc
DataRate	CameraRate	NumFrames	NumMarkers	Units	OrigDataRate	OrigDataStartFrame	OrigNumFrames
200.0	200.0	10	34	mm	200.0	1583	1809	
Frame#	Time	LASI			RASI			LPSI			RPSI			LTHI			LTHAP			LTHAD			LKNE			LKNM			LTIB			LTIAP			LTIAD			LANK			LMED			LHEE			LTOE			LFMH			LSMH			LVMH			RTHI			RTHAP			RTHAD			RKNE			RKNM			RTIB			RTIAP			RTIAD			RANK			RMED			RHEE			RTOE			RFMH			RSMH			RVMH			
		X1	Y1	Z1	X2	Y2	Z2	X3	Y3	Z3	X4	Y4	Z4	X5	Y5	Z5	X6	Y6	Z6	X7	Y7	Z7	X8	Y8	Z8	X9	Y9	Z9	X10	Y10	Z10	X11	Y11	Z11	X12	Y12	Z12	X13	Y13	Z13	X14	Y14	Z14	X15	Y15	Z15	X16	Y16	Z16	X17	Y17	Z17	X18	Y18	Z18	X19	Y19	Z19	X20	Y20	Z20	X21	Y21	Z21	X22	Y22	Z22	X23	Y23	Z23	X24	Y24	Z24	X25	Y25	Z25	X26	Y26	Z26	X27	Y27	Z27	X28	Y28	Z28	X29	Y29	Z29	X30	Y30	Z30	X31	Y31	Z31	X32	Y32	Z32	X33	Y33	Z33	X34	Y34	Z34	
1583	7.91	-21.625986	886.81824	-3043.5706	239.92572	882.61255	-3060.7004				211.82613	891.76111	-2821.293	-35.749989	681.65631	-3052.7605	-57.016029	751.7439	-3027.3606	-47.473572	611.13452	-3010.8167	-9.3467436	456.45432	-2972.0701				1.6070706	260.15253	-2932.3794	42.876949	341.53619	-2992.4587	30.622015	235.76633	-2974.0078	55.233318	57.545818	-2903.1707				113.37574	57.186146	-2869.542	66.286758	61.967968	-2986.4739	83.815414	35.844471	-3045.9932				3.5466273	17.079798	-3018.7014	294.63187	613.11731	-2995.6548	268.93439	733.96259	-3042.0769	251.71127	641.18109	-3053.8943	292.20578	482.75369	-2939.6316				309.39221	298.91434	-2858.697	259.54318	331.06842	-2917.5471	263.75238	255.13252	-2886.5613	287.8891	76.194351	-2759.7385				242.99547	82.158478	-2724.1216	275.8316	66.65023	-2849.4626	245.45648	44.041031	-2897.114				315.95187	12.726448	-2879.8215
1584	7.915	-22.316463	886.64319	-3043.47	239.18416	882.3537	-3061.272				211.50899	891.57855	-2821.7681	-36.267044	681.57672	-3052.7769	-57.559944	751.64893	-3027.3135	-47.946724	611.03534	-3010.8718	-9.6696577	456.36386	-2972.2324				1.3656938	260.04535	-2932.5642	42.652103	341.45639	-2992.6238	30.429241	235.70738	-2974.1758	55.16333	57.499966	-2903.1687				113.27131	57.211903	-2869.5251	66.257347	61.954266	-2986.4688	83.840942	35.848686	-3045.9851				3.5527821	17.082027	-3018.7146	294.74936	611.63965	-2996.2234	268.3374	733.75519	-3042.6577	251.05573	641.01978	-3054.5417	290.84711	481.87167	-2940.7126				309.31113	298.85489	-2859.3396	259.45599	330.76727	-2918.3452	263.71832	254.95711	-2887.0811	287.90479	76.412277	-2759.7102				243.08058	82.384964	-2724.1582	275.9024	66.714073	-2849.4619	245.52161	44.071182	-2897.0632				315.95865	12.715353	-2879.7354
1585	7.92	-23.020643	886.48157	-3043.3452	238.41992	882.11835	-3061.8655				211.16222	891.36902	-2822.2888	-36.799683	681.49921	-3052.7617	-58.113895	751.55945	-3027.2373	-48.428059	610.94153	-3010.8916	-9.9916706	456.28192	-2972.3577				1.1194688	259.94501	-2932.7292	42.429989	341.38766	-2992.7598	30.236835	235.65837	-2974.3218	55.08923	57.452641	-2903.1599				113.15771	57.23423	-2869.4998	66.229454	61.935757	-2986.4551	83.869446	35.853279	-3045.9741				3.5595396	17.08444	-3018.7302	294.88385	609.67603	-2996.7344	267.71817	733.58032	-3043.3093	250.38275	640.89008	-3055.2932	288.90866	480.67841	-2941.9316				309.23425	298.8168	-2860.1101	259.37476	330.4599	-2919.2839	263.69211	254.79105	-2887.709	287.94965	76.689133	-2759.7021				243.17891	82.695702	-2724.2288	275.97543	66.803574	-2849.4924	245.59045	44.104164	-2897.0244				315.95673	12.707342	-2879.6448
1586	7.925	-23.736288	886.33466	-3043.1943	237.63332	881.90869	-3062.4795				210.78607	891.12433	-2822.8599	-37.34943	681.42407	-3052.7126	-58.678223	751.47595	-3027.1284	-48.917866	610.85321	-3010.8726	-10.312679	456.20901	-2972.4456				0.86829036	259.85236	-2932.8713	42.20911	341.33002	-2992.8652	30.045717	235.61809	-2974.4421	55.010574	57.404564	-2903.1436				113.03587	57.253231	-2869.4646	66.200577	61.914207	-2986.4333	83.903664	35.856281	-3045.9565				3.5670767	17.087452	-3018.7473	295.0705	607.12903	-2997.1826	267.07526	733.43933	-3044.0344	249.68576	640.79486	-3056.1555	286.23621	479.11072	-2943.2383				309.15686	298.80231	-2861.0186	259.29559	330.14633	-2920.3733	263.66989	254.63539	-2888.4531	288.02023	77.032166	-2759.7178				243.28458	83.097694	-2724.3391	276.04568	66.922684	-2849.5615	245.66092	44.139637	-2896.9995				315.94244	12.704791	-2879.5503
1587	7.93	-24.461191	886.20282	-3043.0144	236.82465	881.72662	-3063.1118				210.37987	890.83575	-2823.4829	-37.917736	681.35187	-3052.6267	-59.253304	751.39868	-3026.9829	-49.416439	610.77039	-3010.8108	-10.632694	456.14548	-2972.4934				0.61183321	259.76797	-2932.9883	41.987679	341.28345	-2992.9414	29.856718	235.58495	-2974.5332	54.926804	57.356533	-2903.1206				112.90668	57.269276	-2869.4204	66.165283	61.89386	-2986.408	83.94503	35.856758	-3045.9309				3.575634	17.09153	-3018.7664	295.3118	603.90308	-2997.5488	266.40717	733.33228	-3044.8362	248.95766	640.73657	-3057.134	282.67004	477.10565	-2944.5708				309.0741	298.81348	-2862.0752	259.21445	329.8266	-2921.6233	263.64755	254.49094	-2889.3232	288.11087	77.448677	-2759.7627				243.39204	83.597778	-2724.4951	276.10828	67.075012	-2849.6741	245.73079	44.177113	-2896.9922				315.91238	12.709856	-2879.4517
1588	7.935	-25.193302	886.0863	-3042.8027	235.99428	881.57294	-3063.7603				209.94124	890.4964	-2824.1611	-38.505997	681.28271	-3052.4998	-59.839523	751.32758	-3026.7959	-49.924015	610.6933	-3010.7034	-10.951831	456.09137	-2972.5002				0.34953922	259.69244	-2933.0779	41.763687	341.24744	-2992.9868	29.669912	235.55766	-2974.5908	54.837307	57.309292	-2903.0906				112.77104	57.282784	-2869.3674	66.117493	61.879456	-2986.384	83.99276	35.855545	-3045.8967				3.5854607	17.097094	-3018.7869	295.57895	599.91272	-2997.803	265.71191	733.25873	-3045.7163	248.19121	640.71698	-3058.2346	278.07919	474.60471	-2945.9011				308.98126	298.85214	-2863.2893	259.12732	329.50043	-2923.0422	263.62109	254.3582	-2890.3257	288.21509	77.945503	-2759.8486				243.4957	84.202362	-2724.7041	276.16003	67.262772	-2849.8357	245.79776	44.215939	-2897.0046				315.86371	12.724345	-2879.3496
1589	7.94	-25.930824	885.9848	-3042.5571	235.14261	881.44794	-3064.4238				209.46581	890.10272	-2824.8967	-39.115402	681.2168	-3052.3289	-60.437256	751.2627	-3026.5627	-50.440823	610.62183	-3010.5461	-11.270281	456.04663	-2972.4656				0.080715626	259.62595	-2933.1379	41.535061	341.2215	-2993.0034	29.484835	235.53505	-2974.6128	54.741531	57.263428	-2903.0535				112.62988	57.294048	-2869.3054	66.052429	61.87463	-2986.3657	84.044716	35.854511	-3045.856				3.5968211	17.10446	-3018.8096	295.8103	595.09363	-2997.9065	264.98737	733.21759	-3046.6765	247.37904	640.73724	-3059.4614	272.38821	471.55942	-2947.2659				308.87366	298.92014	-2864.6704	259.03	329.1676	-2924.6384	263.58612	254.23769	-2891.4683	288.32642	78.527756	-2759.9893				243.58971	84.917328	-2724.9712	276.19998	67.486374	-2850.0488	245.85942	44.255356	-2897.0386				315.79398	12.749646	-2879.2446
1590	7.945	-26.672291	885.89777	-3042.2749	234.27005	881.35052	-3065.1001				208.94781	889.65497	-2825.6926	-39.746895	681.1543	-3052.1101	-61.046814	751.20398	-3026.2795	-50.966991	610.55585	-3010.3372	-11.588304	456.01102	-2972.3879				-0.19531871	259.56851	-2933.1675	41.299789	341.20493	-2992.991	29.300941	235.51593	-2974.5974	54.63905	57.219322	-2903.0103				112.48401	57.303268	-2869.2354	65.967117	61.881542	-2986.3547	84.098846	35.855412	-3045.8101				3.6099875	17.113834	-3018.833	295.92026	589.41394	-2997.8213	264.23117	733.20715	-3047.7175	246.51437	640.79779	-3060.8164	265.57419	467.93814	-2948.7358				308.74667	299.01883	-2866.2273	258.91785	328.82785	-2926.4177	263.53809	254.12973	-2892.7571	288.43924	79.198982	-2760.2012				243.66847	85.74807	-2725.3032	276.22879	67.744789	-2850.3145	245.91318	44.294521	-2897.0967				315.70148	12.786671	-2879.1355
1591	7.95	-27.416594	885.82404	-3041.9536	233.37704	881.27893	-3065.7883				208.38226	889.15662	-2826.5488	-40.401093	681.09558	-3051.8411	-61.668446	751.15112	-3025.9414	-51.502602	610.49536	-3010.0725	-11.90622	455.98413	-2972.2676				-0.47914481	259.5199	-2933.165	41.056053	341.19681	-2992.9507	29.117821	235.4989	-2974.5435	54.529655	57.177139	-2902.9604				112.33407	57.310585	-2869.157	65.860275	61.900902	-2986.3521	84.153473	35.859619	-3045.7595				3.6251988	17.125336	-3018.8569	295.83218	582.89081	-2997.5305	263.44067	733.2251	-3048.8403	245.59157	640.89856	-3062.302	257.65726	463.73425	-2950.377				308.59592	299.14954	-2867.9678	258.78589	328.48117	-2928.3857	263.47217	254.03485	-2894.1978	288.54956	79.961975	-2760.4983				243.72723	86.699425	-2725.7051	276.24786	68.036385	-2850.6321	245.95642	44.332542	-2897.1802				315.58539	12.835981	-2879.0225
1592	7.955	-28.162985	885.76227	-3041.5903	232.46399	881.23047	-3066.4863				207.76614	888.61609	-2827.4622	-41.078281	681.04083	-3051.5178	-62.302284	751.10425	-3025.5447	-52.047577	610.44031	-3009.75	-12.224416	455.96552	-2972.1042				-0.77120978	259.47961	-2933.1309	40.802273	341.19623	-2992.8843	28.934896	235.48274	-2974.4504	54.413345	57.136871	-2902.9043				112.18039	57.316086	-2869.0715	65.732384	61.932037	-2986.356	84.207352	35.868114	-3045.7053				3.6426132	17.139009	-3018.8818	295.49997	575.6076	-2997.0535	262.61301	733.26892	-3050.0447	244.60643	641.03827	-3063.9177	248.71201	458.9761	-2952.2344				308.41724	299.3132	-2869.8984	258.62881	328.12787	-2930.5454	263.38318	253.95369	-2895.7942	288.65433	80.819489	-2760.8909				243.76225	87.775711	-2726.1831	276.25812	68.359833	-2851.0027	245.98647	44.36858	-2897.2903				315.44504	12.898306	-2878.9043
